<svg xmlns="http://www.w3.org/2000/svg" xmlns:xlink="http://www.w3.org/1999/xlink" width="500" zoomAndPan="magnify" viewBox="0 0 375 374.999991" height="500" preserveAspectRatio="xMidYMid meet" version="1.0"><defs><clipPath id="id1"><path d="M 76.585938 58.21875 L 298.585938 58.21875 L 298.585938 316.96875 L 76.585938 316.96875 Z M 76.585938 58.21875 " clip-rule="nonzero"/></clipPath></defs><g clip-path="url(#id1)"><path fill="#da6220" d="M 79.613281 123.617188 C 78.675781 124.207031 77.9375 124.988281 77.402344 125.953125 C 76.863281 126.921875 76.589844 127.960938 76.585938 129.066406 L 76.585938 249.046875 C 76.585938 249.605469 76.65625 250.152344 76.800781 250.6875 C 76.945312 251.226562 77.152344 251.738281 77.429688 252.21875 C 77.707031 252.703125 78.039062 253.144531 78.429688 253.539062 C 78.816406 253.9375 79.253906 254.277344 79.730469 254.5625 L 183.730469 315.996094 C 184.222656 316.28125 184.742188 316.496094 185.292969 316.644531 C 185.839844 316.789062 186.398438 316.863281 186.96875 316.863281 C 187.539062 316.863281 188.097656 316.789062 188.644531 316.644531 C 189.195312 316.496094 189.714844 316.28125 190.207031 315.996094 L 295.1875 254.539062 C 295.667969 254.257812 296.105469 253.921875 296.5 253.523438 C 296.894531 253.128906 297.230469 252.6875 297.507812 252.203125 C 297.789062 251.71875 298 251.207031 298.144531 250.667969 C 298.289062 250.128906 298.359375 249.578125 298.359375 249.019531 L 298.5625 129.03125 C 298.558594 127.914062 298.28125 126.871094 297.734375 125.894531 C 297.1875 124.921875 296.4375 124.140625 295.488281 123.554688 L 190.332031 59.234375 C 189.824219 58.921875 189.289062 58.683594 188.714844 58.519531 C 188.144531 58.359375 187.5625 58.277344 186.96875 58.277344 C 186.375 58.277344 185.792969 58.359375 185.222656 58.519531 C 184.648438 58.683594 184.113281 58.921875 183.605469 59.234375 Z M 187.003906 72.242188 L 285.75 132.660156 L 285.566406 245.375 L 187.003906 303.039062 L 89.414062 245.390625 L 89.414062 132.644531 Z M 187.003906 72.242188 " fill-opacity="1" fill-rule="nonzero"/></g><path fill="#da6220" d="M 103.777344 240.359375 C 127.222656 253.804688 154.890625 269.714844 182.511719 285.710938 C 185.933594 287.691406 188.8125 287.683594 192.179688 285.710938 C 200.503906 280.855469 208.832031 276.007812 217.167969 271.167969 C 234.90625 260.859375 253.25 250.207031 271.164062 239.53125 C 272.933594 238.472656 274.359375 235.097656 274.566406 232.59375 C 274.898438 228.71875 274.839844 224.722656 274.796875 220.859375 C 274.761719 218.121094 274.726562 215.300781 274.796875 212.507812 C 274.882812 209.902344 274.078125 208.546875 271.703125 207.152344 C 262.582031 201.871094 253.511719 196.535156 244.488281 191.136719 C 237.261719 186.859375 230.027344 182.59375 222.785156 178.335938 C 212.707031 172.433594 202.578125 166.59375 192.367188 160.714844 L 177.832031 152.335938 L 178.933594 151.269531 C 183.859375 146.511719 188.171875 145.96875 193.816406 149.339844 C 218.121094 163.929688 243.015625 178.132812 264.425781 190.269531 C 266.828125 191.632812 270.523438 192.199219 271.765625 191.402344 C 273.652344 190.171875 275.050781 186.511719 275.121094 184 C 275.324219 177.0625 275.296875 169.984375 275.273438 163.125 C 275.273438 156.746094 275.230469 150.167969 275.386719 143.6875 C 275.503906 139.097656 273.796875 136.289062 269.5 134.007812 C 264.222656 131.191406 258.960938 128.160156 253.871094 125.222656 L 241.085938 117.882812 C 224.453125 108.359375 207.847656 98.8125 191.265625 89.238281 C 188.4375 87.609375 186.226562 87.589844 183.535156 89.144531 C 174.628906 94.347656 165.703125 99.542969 156.769531 104.738281 C 139.492188 114.816406 121.621094 125.195312 104.136719 135.570312 C 103.097656 136.300781 102.242188 137.207031 101.570312 138.289062 C 100.898438 139.367188 100.460938 140.53125 100.261719 141.789062 C 99.78125 148.949219 99.78125 156.113281 100.261719 163.277344 C 100.378906 164.183594 100.664062 165.03125 101.125 165.820312 C 101.582031 166.613281 102.175781 167.28125 102.90625 167.832031 C 112.34375 173.824219 122.132812 179.574219 130.457031 184.390625 C 146.523438 193.722656 162.625 203.042969 178.753906 212.34375 L 197.191406 222.988281 L 196.019531 224.054688 C 192.035156 227.703125 187.472656 230.453125 181.273438 226.070312 C 177.15625 223.28125 172.90625 220.714844 168.523438 218.367188 C 166.761719 217.386719 165.003906 216.402344 163.261719 215.386719 L 151.824219 208.757812 C 138.375 200.933594 124.464844 192.839844 110.636719 185.136719 C 108.972656 184.277344 107.203125 183.851562 105.332031 183.855469 C 104.375 183.820312 103.457031 183.992188 102.582031 184.375 C 101.140625 185.09375 99.9375 188.753906 99.878906 191.367188 C 99.714844 199.285156 99.742188 207.273438 99.78125 215.042969 C 99.78125 221.089844 99.824219 227.136719 99.78125 233.191406 C 99.707031 236.628906 100.882812 238.695312 103.777344 240.359375 Z M 103.777344 240.359375 " fill-opacity="1" fill-rule="nonzero"/></svg>